<?xml version="1.0" encoding="UTF-8"?>
<svg id="Camada_1" xmlns="http://www.w3.org/2000/svg" version="1.1" viewBox="0 0 500 500">
  <!-- Generator: Adobe Illustrator 29.0.0, SVG Export Plug-In . SVG Version: 2.1.0 Build 186)  -->
  <defs>
    <style>
      .st0, .st1 {
        fill: #df30fd;
      }

      .st1 {
        fill-rule: evenodd;
      }
    </style>
  </defs>
  <line class="st0" x1="174.93" y1="143.01" x2="159.71" y2="151.8"/>
  <line class="st0" x1="190.48" y1="134.04" x2="175.25" y2="142.83"/>
  <line class="st0" x1="206.02" y1="125.06" x2="190.8" y2="133.85"/>
  <line class="st0" x1="221.56" y1="116.09" x2="206.34" y2="124.88"/>
  <polyline class="st1" points="237.1 107.12 221.88 115.9 221.87 115.9"/>
  <g>
    <path class="st0" d="M363.5,285.41c5.48-6.66,8.83-15.45,8.7-24.92.27-20.33-15.35-37.37-33.76-37.15h-86.06v98.3h34.82v-23.99h50.3v-12.23h26ZM335.05,266.41c-1.46,1.61-3.26,2.41-5.32,2.41h-42.53v-16.75h42.53c2.06,0,3.85.8,5.32,2.49,1.53,1.61,2.26,3.58,2.26,5.92s-.73,4.24-2.26,5.92Z"/>
    <path class="st0" d="M338.44,297.64h-.94v37.86c.2,16.09-11.67,18.86-25.69,19.08-13.95-.22-25.82-2.98-25.62-19.08v-9.54h-34.16v11.94c-.13,36.99,26.86,47.62,59.78,47.69,33.12,0,59.85-10.78,59.85-47.69v-52.5h-8.16c-6.24,7.58-15.25,12.39-25.06,12.23Z"/>
  </g>
  <path class="st0" d="M337.72,129.51c-36.43-21.16-85.05-49.41-85.05-49.41l-139.88,80.45v179.19l139.88,81.37v-18.28l-124.34-71.31v-161.82l124.34,71.31v-17.37l-108.8-63.08,108.8-62.17.79-.45c9.85,5.71,108,62.62,108,62.62l15.54-8.23s-17.45-10.14-39.28-22.82Z"/>
</svg>